<?xml version="1.0" encoding="UTF-8"?>
<!DOCTYPE svg PUBLIC "-//W3C//DTD SVG 1.1//EN" "http://www.w3.org/Graphics/SVG/1.1/DTD/svg11.dtd">
<svg xmlns="http://www.w3.org/2000/svg" version="1.1" width="500px" height="500px" style="shape-rendering:geometricPrecision; text-rendering:geometricPrecision; image-rendering:optimizeQuality; fill-rule:evenodd; clip-rule:evenodd" xmlns:xlink="http://www.w3.org/1999/xlink">
<g><path style="opacity:1" fill="#fefefe" d="M -0.5,-0.5 C 166.167,-0.5 332.833,-0.5 499.5,-0.5C 499.5,166.167 499.5,332.833 499.5,499.5C 332.833,499.5 166.167,499.5 -0.5,499.5C -0.5,332.833 -0.5,166.167 -0.5,-0.5 Z"/></g>
<g><path style="opacity:1" fill="#0a0a0a" d="M 185.5,173.5 C 198.603,173.026 210.936,175.859 222.5,182C 228.17,186.328 227.336,188.828 220,189.5C 213.936,186.553 207.769,183.72 201.5,181C 178.526,176.906 162.692,185.74 154,207.5C 147.633,228.051 148.299,248.384 156,268.5C 169.416,292.282 188.583,298.449 213.5,287C 217.518,283.979 221.184,280.646 224.5,277C 226.5,276.333 228.5,276.333 230.5,277C 230.957,277.414 231.291,277.914 231.5,278.5C 215.572,296.569 195.905,302.403 172.5,296C 156.877,288.959 146.71,277.126 142,260.5C 138.691,245.158 138.691,229.825 142,214.5C 148.664,192.331 163.164,178.664 185.5,173.5 Z"/></g>
<g><path style="opacity:1" fill="#0a0a0a" d="M 284.5,173.5 C 296.496,172.365 306.663,176.032 315,184.5C 322.363,199.443 319.863,212.609 307.5,224C 302.503,227.834 297.17,231.167 291.5,234C 304.789,235.557 315.622,241.39 324,251.5C 332.463,270.776 327.963,286.276 310.5,298C 286.127,307.782 263.461,304.782 242.5,289C 239.983,286.651 237.65,284.151 235.5,281.5C 237.619,278.108 240.619,276.941 244.5,278C 260.05,295.291 279.05,301.291 301.5,296C 319.397,285.299 323.23,270.799 313,252.5C 306.998,246.413 299.832,242.246 291.5,240C 285.527,239.093 279.527,238.427 273.5,238C 272.978,237.439 272.645,236.772 272.5,236C 280.082,233.462 287.415,230.128 294.5,226C 303.25,219.66 308.25,211.16 309.5,200.5C 308.86,190.025 303.527,183.191 293.5,180C 279.906,178.024 267.406,180.857 256,188.5C 257.994,203.543 259.161,218.71 259.5,234C 259.376,241.193 258.876,248.36 258,255.5C 257.855,259.037 257.022,262.371 255.5,265.5C 252.916,266.393 250.249,266.726 247.5,266.5C 250.648,241.052 249.981,215.718 245.5,190.5C 248.366,186.722 252.033,183.889 256.5,182C 265.67,178.214 275.003,175.38 284.5,173.5 Z"/></g>
<g><path style="opacity:1" fill="#191919" d="M 406.5,216.5 C 408.465,216.948 408.798,217.948 407.5,219.5C 405.289,220.123 403.289,221.123 401.5,222.5C 402.432,224.795 403.265,227.129 404,229.5C 406.382,228.446 408.882,227.779 411.5,227.5C 411.67,228.822 411.337,229.989 410.5,231C 405.2,232.692 399.867,234.192 394.5,235.5C 394.5,234.167 394.5,232.833 394.5,231.5C 396.5,231.167 398.5,230.833 400.5,230.5C 401.164,222.966 398.331,220.966 392,224.5C 391.51,223.207 391.343,221.873 391.5,220.5C 396.646,219.299 401.646,217.965 406.5,216.5 Z"/></g>
<g><path style="opacity:1" fill="#101010" d="M 407.5,250.5 C 409.924,250.192 412.257,250.526 414.5,251.5C 413.398,252.176 412.398,252.842 411.5,253.5C 407.575,253.43 403.909,254.097 400.5,255.5C 400.666,259.373 399.666,260.04 397.5,257.5C 397.176,253.445 397.509,249.445 398.5,245.5C 399.452,247.045 399.785,248.712 399.5,250.5C 402.167,250.5 404.833,250.5 407.5,250.5 Z"/></g>
<g><path style="opacity:1" fill="#787878" d="M 407.5,250.5 C 409.948,249.527 412.615,249.194 415.5,249.5C 415.5,250.833 415.5,252.167 415.5,253.5C 414.167,253.5 412.833,253.5 411.5,253.5C 412.398,252.842 413.398,252.176 414.5,251.5C 412.257,250.526 409.924,250.192 407.5,250.5 Z"/></g>
<g><path style="opacity:1" fill="#686868" d="M 400.5,255.5 C 401.451,256.919 401.784,258.585 401.5,260.5C 400.167,260.5 398.833,260.5 397.5,260.5C 397.5,259.5 397.5,258.5 397.5,257.5C 399.666,260.04 400.666,259.373 400.5,255.5 Z"/></g>
<g><path style="opacity:1" fill="#141414" d="M 403.5,270.5 C 413.608,270.583 416.942,275.25 413.5,284.5C 407.077,289.277 401.91,288.277 398,281.5C 397.333,279.5 397.333,277.5 398,275.5C 399.73,273.598 401.563,271.931 403.5,270.5 Z"/></g>
<g><path style="opacity:1" fill="#f1f1f1" d="M 402.5,274.5 C 405.249,274.274 407.916,274.607 410.5,275.5C 413.536,279.189 412.87,282.022 408.5,284C 400.942,284.282 398.942,281.115 402.5,274.5 Z"/></g>
<g><path style="opacity:1" fill="#0b0b0b" d="M 330.5,281.5 C 339.006,281.17 342.839,285.17 342,293.5C 339.647,298.426 335.814,300.26 330.5,299C 322.53,293.087 322.53,287.254 330.5,281.5 Z"/></g>
<g><path style="opacity:1" fill="#b8b8b8" d="M 68.5,279.5 C 70.1172,284.933 71.1172,290.6 71.5,296.5C 69.6247,291.11 68.6247,285.444 68.5,279.5 Z"/></g>
<g><path style="opacity:1" fill="#191919" d="M 395.5,298.5 C 398.505,298.253 401.005,299.253 403,301.5C 409.85,299.016 412.183,301.349 410,308.5C 409.624,311.01 408.79,313.343 407.5,315.5C 402.287,313.907 397.12,312.24 392,310.5C 391.924,306.138 393.091,302.138 395.5,298.5 Z"/></g>
<g><path style="opacity:1" fill="#ededed" d="M 396.5,302.5 C 397.833,302.5 399.167,302.5 400.5,302.5C 400.61,305.059 399.944,307.392 398.5,309.5C 397.098,309.135 396.098,308.301 395.5,307C 396.148,305.56 396.481,304.06 396.5,302.5 Z"/></g>
<g><path style="opacity:1" fill="#e9e9e9" d="M 403.5,303.5 C 404.833,303.5 406.167,303.5 407.5,303.5C 407.579,306.271 407.079,308.937 406,311.5C 404.989,310.663 403.822,310.33 402.5,310.5C 402.448,308.097 402.781,305.764 403.5,303.5 Z"/></g>
<g><path style="opacity:1" fill="#151515" d="M 380.5,336.5 C 381.5,336.5 382.5,336.5 383.5,336.5C 382.332,338.813 380.998,341.146 379.5,343.5C 379.709,344.086 380.043,344.586 380.5,345C 383.474,343.433 386.641,341.933 390,340.5C 394.082,341.159 395.416,343.492 394,347.5C 392.7,350.432 390.7,352.766 388,354.5C 387.308,353.975 386.808,353.308 386.5,352.5C 387.815,350.684 389.315,349.017 391,347.5C 391.483,346.552 391.649,345.552 391.5,344.5C 390.127,344.343 388.793,344.51 387.5,345C 382.881,351.265 379.215,350.931 376.5,344C 376.927,340.977 378.261,338.477 380.5,336.5 Z"/></g>
<g><path style="opacity:1" fill="#191919" d="M 71.5,296.5 C 71.1172,290.6 70.1172,284.933 68.5,279.5C 63.8795,237.864 71.7128,198.864 92,162.5C 116.367,123.458 150.533,97.2918 194.5,84C 251.055,69.8135 303.388,78.8135 351.5,111C 389.599,139.866 412.599,177.866 420.5,225C 420.742,227.348 419.908,229.182 418,230.5C 405.727,160.558 366.227,113.391 299.5,89C 243.407,73.7401 191.074,81.7401 142.5,113C 100.984,144.515 77.4837,186.349 72,238.5C 67.6835,312.706 96.8502,369.206 159.5,408C 176.522,416.354 194.189,422.688 212.5,427C 211.471,428.698 209.971,429.532 208,429.5C 146.452,415.616 103.452,379.616 79,321.5C 76.012,313.193 73.512,304.859 71.5,296.5 Z"/></g>
<g><path style="opacity:1" fill="#161616" d="M 394.5,189.5 C 395.478,189.811 396.145,190.478 396.5,191.5C 394.533,194.012 394.2,196.679 395.5,199.5C 398.251,200.016 400.584,201.183 402.5,203C 396.529,204.069 390.529,204.902 384.5,205.5C 383.713,204.758 383.047,203.925 382.5,203C 386.337,198.331 390.337,193.831 394.5,189.5 Z"/></g>
<g><path style="opacity:1" fill="#cdcdcd" d="M 390.5,197.5 C 394.808,199.849 394.474,201.516 389.5,202.5C 388.833,202.167 388.167,201.833 387.5,201.5C 388.524,200.148 389.524,198.815 390.5,197.5 Z"/></g>
<g><path style="opacity:1" fill="#171717" d="M 366.5,355.5 C 370.981,357.459 374.815,360.459 378,364.5C 378.452,372.708 374.619,375.875 366.5,374C 363.72,372.188 361.22,370.021 359,367.5C 358.517,366.552 358.351,365.552 358.5,364.5C 359.552,364.351 360.552,364.517 361.5,365C 364.742,369.551 368.909,371.384 374,370.5C 374.667,368.5 374.667,366.5 374,364.5C 371.667,362.5 369.333,360.5 367,358.5C 366.517,357.552 366.351,356.552 366.5,355.5 Z"/></g>
<g><path style="opacity:1" fill="#121212" d="M 344.5,377.5 C 353.515,376.683 357.681,380.683 357,389.5C 356.215,391.286 355.049,392.786 353.5,394C 343.387,395.888 339.221,391.721 341,381.5C 342.376,380.295 343.542,378.962 344.5,377.5 Z"/></g>
<g><path style="opacity:1" fill="#f0f0f0" d="M 345.5,380.5 C 351.653,380.484 354.486,383.484 354,389.5C 346.629,393.141 343.296,390.807 344,382.5C 344.717,381.956 345.217,381.289 345.5,380.5 Z"/></g>
<g><path style="opacity:1" fill="#1a1a1a" d="M 179.5,389.5 C 185.647,389.05 189.314,391.717 190.5,397.5C 187.925,396.119 185.425,394.452 183,392.5C 177.862,393.976 176.195,397.31 178,402.5C 180.135,404.278 182.635,404.945 185.5,404.5C 185.5,405.5 185.5,406.5 185.5,407.5C 176.729,408.229 172.896,404.229 174,395.5C 175.36,392.977 177.193,390.977 179.5,389.5 Z"/></g>
<g><path style="opacity:1" fill="#181818" d="M 325.5,390.5 C 327.074,390.937 328.241,391.937 329,393.5C 330.912,397.66 333.079,401.66 335.5,405.5C 334.758,406.287 333.925,406.953 333,407.5C 329.967,402.628 327.133,397.628 324.5,392.5C 324.863,391.817 325.196,391.15 325.5,390.5 Z"/></g>
<g><path style="opacity:1" fill="#171717" d="M 204.5,400.5 C 213.841,401.004 217.007,405.671 214,414.5C 208.514,420.08 203.514,419.747 199,413.5C 198.333,410.833 198.333,408.167 199,405.5C 200.73,403.598 202.563,401.931 204.5,400.5 Z"/></g>
<g><path style="opacity:1" fill="#131313" d="M 303.5,400.5 C 304.675,400.281 305.675,400.614 306.5,401.5C 308.414,405.323 309.747,409.323 310.5,413.5C 313.477,412.929 316.31,411.929 319,410.5C 319.692,411.025 320.192,411.692 320.5,412.5C 316.822,414.948 312.822,416.615 308.5,417.5C 306.629,411.886 304.962,406.22 303.5,400.5 Z"/></g>
<g><path style="opacity:1" fill="#f2f2f2" d="M 205.5,403.5 C 211.438,404.392 213.105,407.725 210.5,413.5C 205.792,416.739 202.792,415.573 201.5,410C 202.207,407.413 203.541,405.246 205.5,403.5 Z"/></g>
<g><path style="opacity:1" fill="#141414" d="M 285.5,405.5 C 294.433,406.139 294.266,407.473 285,409.5C 284.612,411.076 285.112,412.409 286.5,413.5C 288.516,412.294 290.516,412.294 292.5,413.5C 290.977,415.283 288.977,415.949 286.5,415.5C 286.5,417.167 286.5,418.833 286.5,420.5C 289.518,420.296 292.518,419.963 295.5,419.5C 295.5,420.5 295.5,421.5 295.5,422.5C 291.443,422.848 287.443,423.514 283.5,424.5C 282.921,419.094 281.921,413.761 280.5,408.5C 282.145,407.304 283.811,406.304 285.5,405.5 Z"/></g>
<g><path style="opacity:1" fill="#111111" d="M 228.5,406.5 C 231.079,407.228 233.746,407.728 236.5,408C 240.213,409.691 241.379,412.525 240,416.5C 236.94,418.891 236.773,421.558 239.5,424.5C 238.311,425.429 236.978,425.762 235.5,425.5C 235.554,421.22 233.554,418.886 229.5,418.5C 229.5,420.5 229.5,422.5 229.5,424.5C 228.5,424.5 227.5,424.5 226.5,424.5C 226.379,418.369 227.046,412.369 228.5,406.5 Z"/></g>
<g><path style="opacity:1" fill="#080808" d="M 263.5,418.5 C 263.783,419.289 264.283,419.956 265,420.5C 265.499,416.848 265.665,413.182 265.5,409.5C 266.5,409.5 267.5,409.5 268.5,409.5C 268.5,415.167 268.5,420.833 268.5,426.5C 267.448,426.649 266.448,426.483 265.5,426C 263.333,422.667 260.666,419.834 257.5,417.5C 256.495,419.704 256.162,422.704 256.5,426.5C 255.5,426.5 254.5,426.5 253.5,426.5C 253.5,420.833 253.5,415.167 253.5,409.5C 257.42,411.749 260.754,414.749 263.5,418.5 Z"/></g>
<g><path style="opacity:1" fill="#dcdcdc" d="M 230.5,410.5 C 232.527,410.338 234.527,410.505 236.5,411C 237.833,412.667 237.833,414.333 236.5,416C 234.527,416.495 232.527,416.662 230.5,416.5C 230.5,414.5 230.5,412.5 230.5,410.5 Z"/></g>
<g><path style="opacity:1" fill="#9c9c9c" d="M 268.5,409.5 C 267.5,409.5 266.5,409.5 265.5,409.5C 265.665,413.182 265.499,416.848 265,420.5C 264.283,419.956 263.783,419.289 263.5,418.5C 264.479,415.375 264.813,412.042 264.5,408.5C 266.099,408.232 267.432,408.566 268.5,409.5 Z"/></g>
<g><path style="opacity:1" fill="#949494" d="M 257.5,417.5 C 257.5,420.833 257.5,424.167 257.5,427.5C 255.901,427.768 254.568,427.434 253.5,426.5C 254.5,426.5 255.5,426.5 256.5,426.5C 256.162,422.704 256.495,419.704 257.5,417.5 Z"/></g>
</svg>
