<?xml version="1.0" standalone="no"?>
<!DOCTYPE svg PUBLIC "-//W3C//DTD SVG 20010904//EN"
 "http://www.w3.org/TR/2001/REC-SVG-20010904/DTD/svg10.dtd">
<svg version="1.0" xmlns="http://www.w3.org/2000/svg"
 width="50.000000pt" height="50.000000pt" viewBox="0 0 128.000000 128.000000"
 preserveAspectRatio="xMidYMid meet">

<g transform="translate(0.000000,128.000000) scale(0.100000,-0.100000)"
fill="#000000" stroke="none">
<path d="M113 1269 c-44 -13 -90 -62 -103 -109 -7 -26 -10 -211 -8 -542 4
-666 -29 -611 376 -616 l262 -3 0 220 0 221 -80 0 -80 0 0 100 0 100 79 0 79
0 4 118 c3 112 5 122 33 168 19 30 49 60 79 79 46 28 56 30 168 33 l118 4 0
-100 0 -100 -71 -4 c-47 -2 -73 -8 -79 -18 -6 -8 -10 -52 -10 -97 l0 -83 101
0 c92 0 101 -2 95 -18 -4 -9 -21 -54 -39 -99 l-32 -83 -62 0 -63 0 0 -221 0
-221 143 4 c159 3 193 15 232 80 19 32 20 51 20 558 0 507 -1 526 -20 558 -11
18 -36 43 -55 55 -35 22 -40 22 -545 24 -294 1 -523 -2 -542 -8z"/>
</g>
</svg>
