<?xml version="1.0" standalone="no"?>
<!DOCTYPE svg PUBLIC "-//W3C//DTD SVG 20010904//EN"
 "http://www.w3.org/TR/2001/REC-SVG-20010904/DTD/svg10.dtd">
<svg version="1.0" xmlns="http://www.w3.org/2000/svg"
 width="50.000000pt" height="50.000000pt" viewBox="0 0 128.000000 128.000000"
 preserveAspectRatio="xMidYMid meet">

<g transform="translate(0.000000,128.000000) scale(0.100000,-0.100000)"
fill="#000000" stroke="none">
<path d="M105 1266 c-37 -17 -80 -62 -94 -99 -15 -39 -15 -1015 0 -1054 14
-38 57 -83 96 -99 26 -11 130 -14 535 -14 565 0 540 -3 603 74 l30 38 3 501
c2 276 0 517 -3 535 -7 40 -59 101 -102 118 -47 20 -1024 20 -1068 0z m708
-284 c82 -41 149 -107 190 -191 29 -60 32 -74 32 -161 0 -82 -4 -103 -27 -153
-34 -73 -116 -159 -181 -192 -81 -40 -84 -38 -89 58 -3 45 -8 89 -12 97 -5 12
4 18 37 27 54 15 96 47 113 89 19 46 18 128 -3 167 -9 18 -15 47 -14 64 3 43
-7 73 -25 73 -8 0 -31 -7 -52 -16 -52 -23 -233 -22 -285 0 -60 26 -72 20 -75
-43 -2 -29 -10 -64 -18 -76 -18 -28 -20 -110 -4 -159 14 -44 58 -82 113 -98
23 -6 43 -12 45 -14 1 -1 -2 -13 -9 -27 -23 -51 -75 -44 -135 19 -27 30 -64
45 -64 28 0 -7 43 -62 82 -105 21 -23 35 -29 67 -29 l41 0 0 -40 c0 -35 -3
-40 -22 -40 -33 0 -116 51 -166 101 -24 24 -58 73 -75 109 -29 59 -32 73 -32
160 0 88 3 101 33 162 36 73 93 136 159 175 72 42 120 53 219 50 79 -2 100 -7
157 -35z"/>
</g>
</svg>
