<?xml version="1.0" standalone="no"?>
<!DOCTYPE svg PUBLIC "-//W3C//DTD SVG 20010904//EN"
 "http://www.w3.org/TR/2001/REC-SVG-20010904/DTD/svg10.dtd">
<svg version="1.0" xmlns="http://www.w3.org/2000/svg"
 width="50.000000pt" height="50.000000pt" viewBox="0 0 128.000000 128.000000"
 preserveAspectRatio="xMidYMid meet">

<g transform="translate(0.000000,128.000000) scale(0.100000,-0.100000)"
fill="#000000" stroke="none">
<path d="M115 1265 c-49 -17 -90 -62 -104 -112 -15 -53 -15 -974 0 -1028 14
-50 64 -100 114 -114 55 -15 975 -15 1030 0 50 14 100 64 114 114 15 55 15
975 0 1030 -14 50 -64 100 -114 114 -27 7 -201 11 -520 11 -387 -1 -488 -4
-520 -15z m294 -239 c33 -17 51 -54 51 -102 0 -48 -54 -104 -98 -104 -76 0
-127 54 -118 125 9 78 92 118 165 81z m496 -247 c55 -16 100 -64 119 -131 13
-43 16 -92 14 -229 l-3 -174 -85 0 -85 0 -5 172 c-5 159 -7 174 -26 194 -25
24 -85 29 -110 8 -32 -26 -38 -57 -44 -214 l-5 -160 -80 0 -80 0 0 265 0 265
80 0 80 0 3 -29 4 -28 23 22 c47 44 126 59 200 39z m-476 -13 c8 -9 11 -88 9
-267 l-3 -254 -79 -3 c-57 -2 -82 1 -87 10 -13 19 -11 485 1 509 9 16 22 19
79 19 46 0 72 -5 80 -14z"/>
</g>
</svg>
